<?xml version="1.0" standalone="no"?>
<!DOCTYPE svg PUBLIC "-//W3C//DTD SVG 20010904//EN"
 "http://www.w3.org/TR/2001/REC-SVG-20010904/DTD/svg10.dtd">
<svg version="1.0" xmlns="http://www.w3.org/2000/svg"
 width="512.000000pt" height="512.000000pt" viewBox="0 0 512.000000 512.000000"
 preserveAspectRatio="xMidYMid meet">

<g transform="translate(0.000000,512.000000) scale(0.100000,-0.100000)"
fill="#000000" stroke="none">
<path d="M254 3861 c-137 -135 -177 -193 -208 -303 -14 -50 -16 -181 -16
-1243 0 -1170 0 -1188 21 -1273 40 -167 140 -328 275 -447 38 -33 71 -63 72
-67 2 -5 8 -8 13 -8 5 0 44 -24 87 -54 291 -203 740 -351 1259 -416 272 -33
429 -42 728 -43 297 0 440 9 720 44 536 67 995 220 1278 427 174 127 289 254
357 397 49 103 68 178 76 312 l7 108 49 47 c30 29 62 74 81 115 l32 68 3 562
2 563 -29 59 c-17 32 -44 74 -61 92 -28 31 -32 32 -41 17 -6 -10 -17 -18 -24
-18 -13 0 -15 49 -15 334 0 183 -5 357 -10 386 -6 29 -26 87 -46 129 -32 66
-54 93 -167 202 l-131 127 -22 -48 c-110 -239 -715 -472 -1450 -561 -224 -27
-768 -38 -1005 -20 -610 46 -1138 185 -1469 387 -116 71 -220 180 -220 231 0
31 -25 13 -146 -106z m294 -237 c242 -162 661 -301 1113 -369 295 -44 375 -49
809 -50 342 0 455 3 582 18 349 39 663 105 918 192 175 59 415 178 504 250 39
30 75 54 80 52 15 -5 8 -188 -10 -262 -47 -193 -225 -331 -579 -449 -689 -230
-1741 -273 -2566 -106 -480 98 -805 240 -930 406 -66 86 -79 134 -79 282 0 71
3 132 7 135 3 4 20 -4 37 -18 17 -14 68 -51 114 -81z m3377 -1773 c151 -69
197 -272 89 -400 -61 -73 -176 -108 -271 -82 -106 29 -183 133 -183 247 0 192
190 314 365 235z"/>
</g>
</svg>
